<svg xmlns="http://www.w3.org/2000/svg" viewBox="0 0 24 24" width="24" height="24" fill="currentColor">
  <path d="M12 .5A11.5 11.5 0 0 0 .5 12c0 5.09 3.29 9.4 7.86 10.92.58.1.79-.25.79-.56v-2.02c-3.2.7-3.87-1.39-3.87-1.39-.53-1.35-1.29-1.71-1.29-1.71-1.05-.72.08-.71.08-.71 1.16.08 1.77 1.2 1.77 1.2 1.03 1.77 2.71 1.26 3.37.97.1-.76.4-1.26.73-1.55-2.55-.29-5.23-1.27-5.23-5.65 0-1.25.45-2.27 1.19-3.06-.12-.29-.52-1.46.11-3.04 0 0 .97-.31 3.18 1.17a11.04 11.04 0 0 1 5.8 0c2.21-1.48 3.17-1.17 3.17-1.17.63 1.58.23 2.75.11 3.04.74.79 1.18 1.81 1.18 3.06 0 4.39-2.69 5.35-5.25 5.64.41.35.78 1.03.78 2.08v3.08c0 .31.21.67.8.56A11.5 11.5 0 0 0 23.5 12 11.5 11.5 0 0 0 12 .5Z"/>
</svg>